HIERARCHY
ROOT Hips
{
 OFFSET 0.000000 0.000000 0.000000
 CHANNELS 6 Xposition Yposition Zposition Yrotation Xrotation Zrotation
 JOINT Chest
 {
  OFFSET 0.000000 9.585900 0.002600
  CHANNELS 3 Yrotation Xrotation Zrotation
  JOINT Chest2
  {
   OFFSET 0.000000 9.601200 -0.005300
   CHANNELS 3 Yrotation Xrotation Zrotation
   JOINT Chest3
   {
    OFFSET 0.000000 9.561800 0.000000
    CHANNELS 3 Yrotation Xrotation Zrotation
    JOINT Chest4
    {
     OFFSET 0.000000 9.552100 0.000000
     CHANNELS 3 Yrotation Xrotation Zrotation
     JOINT Neck
     {
      OFFSET 0.000000 14.453000 0.000000
      CHANNELS 3 Yrotation Xrotation Zrotation
      JOINT Head
      {
       OFFSET 0.000000 8.936500 -0.011300
       CHANNELS 3 Yrotation Xrotation Zrotation
       End Site
       {
        OFFSET 0.000000 17.073600 -0.006000
       }
      }
     }
     JOINT RightCollar
     {
      OFFSET -2.921100 9.558500 0.000000
      CHANNELS 3 Yrotation Xrotation Zrotation
      JOINT RightShoulder
      {
       OFFSET -13.519700 0.000000 0.000000
       CHANNELS 3 Yrotation Xrotation Zrotation
       JOINT RightElbow
       {
        OFFSET 0.000000 -29.696600 0.000000
        CHANNELS 3 Yrotation Xrotation Zrotation
        JOINT RightWrist
        {
         OFFSET 0.000000 -24.004700 0.000000
         CHANNELS 3 Yrotation Xrotation Zrotation
         End Site
         {
          OFFSET 0.000000 -17.728500 0.000000
         }
        }
       }
      }
     }
     JOINT LeftCollar
     {
      OFFSET 2.921100 9.558500 0.000000
      CHANNELS 3 Yrotation Xrotation Zrotation
      JOINT LeftShoulder
      {
       OFFSET 13.519700 0.000000 0.000000
       CHANNELS 3 Yrotation Xrotation Zrotation
       JOINT LeftElbow
       {
        OFFSET 0.000000 -29.696600 0.000000
        CHANNELS 3 Yrotation Xrotation Zrotation
        JOINT LeftWrist
        {
         OFFSET 0.000000 -24.004700 0.000000
         CHANNELS 3 Yrotation Xrotation Zrotation
         End Site
         {
          OFFSET 0.000000 -17.728500 0.000000
         }
        }
       }
      }
     }
    }
   }
  }
 }
 JOINT RightHip
 {
  OFFSET -7.771700 -0.012900 -0.001300
  CHANNELS 3 Yrotation Xrotation Zrotation
  JOINT RightKnee
  {
   OFFSET 0.000000 -40.869800 0.001200
   CHANNELS 3 Yrotation Xrotation Zrotation
   JOINT RightAnkle
   {
    OFFSET 0.000000 -39.717900 0.002100
    CHANNELS 3 Yrotation Xrotation Zrotation
    JOINT RightToe
    {
     OFFSET 0.000000 -4.965400 11.033500
     CHANNELS 3 Yrotation Xrotation Zrotation
     End Site
     {
      OFFSET 0.000000 -1.423100 5.872300
     }
    }
   }
  }
 }
 JOINT LeftHip
 {
  OFFSET 7.771700 -0.012900 -0.001300
  CHANNELS 3 Yrotation Xrotation Zrotation
  JOINT LeftKnee
  {
   OFFSET 0.000000 -40.869800 0.001200
   CHANNELS 3 Yrotation Xrotation Zrotation
   JOINT LeftAnkle
   {
    OFFSET 0.000000 -39.717900 0.002100
    CHANNELS 3 Yrotation Xrotation Zrotation
    JOINT LeftToe
    {
     OFFSET 0.000000 -4.965400 11.033500
     CHANNELS 3 Yrotation Xrotation Zrotation
     End Site
     {
      OFFSET 0.000000 -1.423100 5.872300
     }
    }
   }
  }
 }
}
MOTION
Frames: 8
Frame Time: 0.008333
0.000000 85.388000 0.000000 0.000000 -5.767877 0.000000 0.000000 11.653817 0.000000 0.000000 -5.885947 0.000000 0.000000 -0.000000 0.000000 0.000000 -0.000000 0.000000 0.000000 12.528835 0.000000 0.000000 0.711642 0.000000 0.000000 -0.000000 0.000000 0.000000 0.000000 -90.000000 0.000000 -2.309062 0.000000 0.000000 2.309062 0.000000 0.000000 -0.000000 0.000000 0.000000 -0.000000 90.000000 0.000000 -2.309062 0.000000 0.000000 2.309062 0.000000 0.000000 8.520406 0.000000 0.000000 1.905762 0.000000 -0.000000 -4.658285 0.000000 0.000000 -0.000000 0.000000 0.000000 8.520406 0.000000 0.000000 1.905762 0.000000 -0.000000 -4.658285 0.000000 0.000000 -0.000000 0.000000
-88.258875 43.962120 19.203421 175.028471 -29.278258 1.887077 2.591868 19.946416 2.320028 0.247206 2.597878 0.337349 0.413005 4.252202 0.558547 2.010534 17.400194 2.551079 -0.512020 17.230372 -6.140505 0.864928 -7.424165 -6.479449 17.024237 -2.313793 -5.815257 18.451010 -36.330548 -33.343245 162.274469 -45.039400 -148.462153 1.871760 -10.185389 -51.266212 -11.666430 -0.453931 -5.046013 16.575765 4.253739 9.256127 110.763335 -71.162996 -143.128450 19.681158 9.994135 36.539996 1.156913 -63.873486 8.235055 -147.544726 70.241441 -147.173245 -12.559706 -22.776206 7.895616 0.414645 -0.901796 0.183179 3.696067 -47.295142 -4.897901 172.364978 59.117834 171.906618 -0.523931 -41.440204 0.881041 -0.006944 0.515595 -0.053121
-88.240896 43.956450 19.153807 175.065852 -29.108410 1.911482 2.491364 20.017129 2.279688 0.238928 2.577937 0.333095 0.399504 4.221376 0.551560 1.958058 17.349909 2.525419 -0.523145 17.121276 -6.143179 0.853866 -7.543652 -6.478936 16.995062 -2.280838 -5.714338 17.714861 -35.878416 -32.993196 162.315857 -44.965127 -148.478615 2.033110 -10.408307 -51.655074 -11.572455 -0.449769 -5.044045 16.226378 4.538185 8.864390 109.825408 -71.098076 -142.442690 19.755970 10.300657 36.738813 1.140468 -64.057177 8.261439 -147.637433 70.138998 -147.303994 -12.606313 -22.807355 7.930166 0.423688 -0.938417 0.184954 3.581189 -47.434539 -4.853695 172.443970 59.074698 171.917109 -0.573968 -41.462688 0.864814 0.026694 0.473518 -0.027495
-88.217507 43.947301 19.102494 175.105781 -28.874355 1.919428 2.397786 20.021763 2.253945 0.231401 2.558442 0.329198 0.387103 4.191109 0.545197 1.910012 17.299865 2.502353 -0.535060 17.009405 -6.146151 0.842004 -7.665897 -6.478524 16.949425 -2.235152 -5.614696 16.957341 -35.392709 -32.641995 162.404350 -44.912919 -148.519802 2.190665 -10.610780 -52.042860 -11.488246 -0.457001 -5.042751 15.883367 4.822378 8.496550 109.025130 -71.035067 -141.853818 19.824321 10.582355 36.893176 1.031705 -64.308840 8.420215 -147.560578 70.015812 -147.296605 -12.705262 -22.801691 7.945327 0.507522 -0.983259 0.229872 3.448210 -47.639377 -4.784516 172.550583 59.038992 171.948842 -0.596416 -41.486091 0.840542 0.045655 0.447506 -0.007214
-88.192043 43.937083 19.048359 175.133951 -28.606033 1.931191 2.318489 19.993625 2.228079 0.224735 2.539391 0.325681 0.376119 4.161484 0.539433 1.867723 17.250073 2.482102 -0.547446 16.895032 -6.147699 0.829261 -7.790833 -6.476484 16.877197 -2.179831 -5.522706 16.186358 -34.877064 -32.281395 162.511875 -44.878034 -148.563249 2.334579 -10.796296 -52.411471 -11.411787 -0.472163 -5.039539 15.557794 5.096121 8.157406 108.331768 -70.975712 -141.351004 19.886121 10.825787 37.021492 1.011126 -64.586482 8.488157 -147.540403 69.910356 -147.317000 -12.723467 -22.823935 7.949926 0.525701 -1.008558 0.254360 3.328176 -47.875927 -4.716355 172.661717 59.001822 171.991102 -0.618065 -41.503258 0.810762 0.067825 0.402007 0.012018
-88.171012 43.925170 18.995493 175.191381 -28.297051 1.957034 2.209226 19.926734 2.172962 0.218389 2.520286 0.322457 0.365786 4.131853 0.534181 1.828034 17.199594 2.464349 -0.561271 16.779952 -6.148524 0.814883 -7.916534 -6.473462 16.779848 -2.119342 -5.443131 15.408768 -34.326468 -31.908931 162.626578 -44.863000 -148.600652 2.452931 -10.977624 -52.724766 -11.327682 -0.551726 -5.048993 15.261141 5.406766 7.878004 107.708492 -70.918482 -140.921775 19.935928 11.025294 37.135240 1.086069 -64.904460 8.422970 -147.556644 69.811335 -147.356011 -12.691927 -22.852091 7.912254 0.491688 -1.038013 0.310155 3.220400 -48.157468 -4.692793 172.785299 58.981490 172.038226 -0.635790 -41.504090 0.792695 0.085895 0.363237 0.028330
-88.146126 43.915593 18.938783 175.207550 -28.001881 1.978008 2.151769 19.875562 2.150391 0.211678 2.500796 0.319474 0.354810 4.101593 0.529315 1.785584 17.147755 2.448105 -0.575639 16.663791 -6.150126 0.800161 -8.043057 -6.471210 16.669149 -2.052634 -5.376230 14.629857 -33.737021 -31.533305 162.764842 -44.881774 -148.644706 2.541611 -11.152163 -52.962923 -11.245660 -0.633684 -5.061122 15.007601 5.691652 7.629216 107.109736 -70.858405 -140.535640 19.968318 11.178299 37.239491 1.167222 -65.203903 8.383467 -147.590721 69.719039 -147.406354 -12.647415 -22.890291 7.925886 0.433866 -1.071019 0.320573 3.121570 -48.416848 -4.639273 172.873015 58.936677 172.072297 -0.675097 -41.515505 0.755956 0.118814 0.327476 0.052800
-88.125493 43.905486 18.884809 175.232138 -27.685699 2.011241 2.087948 19.803883 2.116256 0.204238 2.480886 0.316668 0.342615 4.070557 0.524712 1.737878 17.094411 2.432417 -0.544229 16.540292 -6.181307 0.737085 -8.163135 -6.426222 16.550175 -1.973591 -5.318663 13.857527 -33.111123 -31.164133 162.960449 -44.953827 -148.711413 2.604588 -11.303286 -53.120632 -11.177413 -0.560464 -5.053501 14.787341 5.804180 7.344243 106.514267 -70.792816 -140.174619 19.985104 11.286748 37.334641 1.275306 -65.521331 8.277853 -147.685644 69.639719 -147.520906 -12.550542 -22.944792 7.934215 0.295723 -1.081119 0.291464 3.040365 -48.693857 -4.616674 172.943452 58.899099 172.089330 -0.720360 -41.541417 0.727387 0.149249 0.316337 0.071771
